<svg version="1.1" id="Layer_1" xmlns="http://www.w3.org/2000/svg" xmlns:xlink="http://www.w3.org/1999/xlink" x="0px" y="0px"
	 width="100%" viewBox="0 0 64 64" enable-background="new 0 0 64 64" xml:space="preserve">
<path fill="#E22CB9" opacity="1.000000" stroke="none" 
	d="
M43.000290,65.000000 
	C28.666895,65.000000 14.833565,65.000000 1.000176,65.000000 
	C1.000118,43.666752 1.000118,22.333500 1.000059,1.000188 
	C22.333244,1.000125 43.666489,1.000125 64.999802,1.000063 
	C64.999863,22.333239 64.999863,43.666477 64.999931,64.999863 
	C57.833450,65.000000 50.666901,65.000000 43.000290,65.000000 
M3.082754,27.705051 
	C3.414531,33.998482 3.748741,40.291790 4.077378,46.585384 
	C4.385431,52.484795 13.473989,61.789490 19.338451,61.883152 
	C28.423260,62.028248 37.512623,61.979347 46.598953,61.894642 
	C50.463921,61.858612 61.376122,53.438534 61.676136,49.633175 
	C62.353195,41.045479 62.290321,32.402241 62.689903,23.789087 
	C63.077805,15.427840 57.570282,10.619988 52.094433,5.794088 
	C51.166451,4.976250 49.824955,4.252282 48.629658,4.174542 
	C41.345013,3.700763 34.038033,3.048050 26.757658,3.228376 
	C22.446104,3.335167 17.515799,3.804695 14.013117,5.970228 
	C6.628197,10.535957 2.555776,17.637541 3.082754,27.705051 
z"/>
<path fill="#FF7EE2" opacity="1.000000" stroke="none" 
	d="
M3.084237,27.232922 
	C2.555776,17.637541 6.628197,10.535957 14.013117,5.970228 
	C17.515799,3.804695 22.446104,3.335167 26.757658,3.228376 
	C34.038033,3.048050 41.345013,3.700763 48.629658,4.174542 
	C49.824955,4.252282 51.166451,4.976250 52.094433,5.794088 
	C57.570282,10.619988 63.077805,15.427840 62.689903,23.789087 
	C62.290321,32.402241 62.353195,41.045479 61.676136,49.633175 
	C61.376122,53.438534 50.463921,61.858612 46.598953,61.894642 
	C37.512623,61.979347 28.423260,62.028248 19.338451,61.883152 
	C13.473989,61.789490 4.385431,52.484795 4.077378,46.585384 
	C3.748741,40.291790 3.414531,33.998482 3.084237,27.232922 
M17.855343,12.069293 
	C16.116264,13.418066 14.213548,14.602694 12.666939,16.144531 
	C6.550076,22.242521 6.539035,27.617491 12.370871,33.811192 
	C16.543608,38.242844 20.700079,42.693333 24.739531,47.245697 
	C27.294651,50.125252 29.621239,53.207592 32.574871,56.844952 
	C35.104706,53.859772 36.337605,52.289143 37.690155,50.829380 
	C43.010639,45.087139 48.345150,39.357479 53.719326,33.665516 
	C59.546070,27.494234 59.249580,22.061201 52.490715,16.049717 
	C50.729683,14.483415 48.240799,11.935661 46.682495,12.311433 
	C43.315090,13.123451 39.919605,15.074524 37.303570,17.417202 
	C34.289230,20.116560 32.405338,20.802870 29.015364,17.797346 
	C26.120829,15.231076 22.133247,13.897668 17.855343,12.069293 
z"/>
<path fill="#EA0000" opacity="1.000000" stroke="none" 
	d="
M18.242256,12.044103 
	C22.133247,13.897668 26.120829,15.231076 29.015364,17.797346 
	C32.405338,20.802870 34.289230,20.116560 37.303570,17.417202 
	C39.919605,15.074524 43.315090,13.123451 46.682495,12.311433 
	C48.240799,11.935661 50.729683,14.483415 52.490715,16.049717 
	C59.249580,22.061201 59.546070,27.494234 53.719326,33.665516 
	C48.345150,39.357479 43.010639,45.087139 37.690155,50.829380 
	C36.337605,52.289143 35.104706,53.859772 32.574871,56.844952 
	C29.621239,53.207592 27.294651,50.125252 24.739531,47.245697 
	C20.700079,42.693333 16.543608,38.242844 12.370871,33.811192 
	C6.539035,27.617491 6.550076,22.242521 12.666939,16.144531 
	C14.213548,14.602694 16.116264,13.418066 18.242256,12.044103 
M45.496513,20.997660 
	C47.426674,23.339567 49.356831,25.681475 51.727772,28.558195 
	C51.835480,22.563530 48.704536,18.755711 42.374828,17.123434 
	C43.534531,18.613363 44.258629,19.543652 45.496513,20.997660 
z"/>
<path fill="#FFFFFF" opacity="1.000000" stroke="none" 
	d="
M45.239624,20.735800 
	C44.258629,19.543652 43.534531,18.613363 42.374828,17.123434 
	C48.704536,18.755711 51.835480,22.563530 51.727772,28.558195 
	C49.356831,25.681475 47.426674,23.339567 45.239624,20.735800 
z"/>
</svg>